<?xml version="1.0" encoding="UTF-8"?>
<svg id="_레이어_1" data-name="레이어 1" xmlns="http://www.w3.org/2000/svg" viewBox="0 0 1663.07 493.55">
  <defs>
    <style>
      .cls-1 {
        fill: #e9c41e;
      }

      .cls-1, .cls-2 {
        stroke-width: 0px;
      }

      .cls-3 {
        fill: #231815;
        font-family: H2hdrM, HYHeadLine-Medium;
        font-size: 200px;
        letter-spacing: -.05em;
        stroke: #231815;
        stroke-miterlimit: 10;
        stroke-width: 8.4px;
      }

      .cls-2 {
        fill: #727373;
      }
    </style>
  </defs>
  <path class="cls-1" d="m346,492.07c-92.44-18.25-184.89,0-277.33-18.25C30.74,466.36,0,425.97,0,394.08v-228.93c0-31.87,30.74-52.8,68.67-57.19,92.44-8.95,184.89-54.4,277.33-63.35,37.92-4.4,68.67,36.16,68.67,80.14v309.73c0,43.96-30.74,65.06-68.67,57.59Z"/>
  <path class="cls-2" d="m397.14,462.08c-91.75-17.7-183.49,0-275.24-17.7-40.08-7.69-72.57-50.67-72.57-84.37V126.07c0-33.66,32.49-55.67,72.57-60.78C213.65,55.46,305.4,10.24,397.14.41c40.08-5.11,72.57,37.86,72.57,84.37v316.52c0,46.46-32.49,68.47-72.57,60.78Z"/>
  <text class="cls-3" transform="translate(518.87 347.54) scale(1 1.25)"><tspan x="0" y="0">드림종합건설</tspan></text>
</svg>