<svg id="그룹_11372" data-name="그룹 11372" xmlns="http://www.w3.org/2000/svg" xmlns:xlink="http://www.w3.org/1999/xlink" width="30" height="30" viewBox="0 0 30 30">
  <defs>
    <clipPath id="clip-path">
      <rect id="사각형_8247" data-name="사각형 8247" width="30" height="30" fill="none"/>
    </clipPath>
  </defs>
  <g id="그룹_11372-2" data-name="그룹 11372" clip-path="url(#clip-path)">
    <path id="패스_19723" data-name="패스 19723" d="M24.1,25.05H5.9a.65.65,0,0,1-.65-.65V2a.65.65,0,0,1,.65-.65H24.1a.65.65,0,0,1,.65.65V24.4a.65.65,0,0,1-.65.65M6.55,23.75h16.9V2.65H6.55Z" fill="#212121"/>
    <path id="패스_19724" data-name="패스 19724" d="M2.325,14.35a.65.65,0,0,1-.65-.65V9.15a.65.65,0,0,1,.65-.65H5.9a.65.65,0,1,1,0,1.3H2.975v3.9a.65.65,0,0,1-.65.65" fill="#212121"/>
    <path id="패스_19725" data-name="패스 19725" d="M27.675,14.35a.65.65,0,0,1-.65-.65V9.8H24.1a.65.65,0,0,1,0-1.3h3.575a.65.65,0,0,1,.65.65V13.7a.65.65,0,0,1-.65.65" fill="#212121"/>
    <path id="패스_19726" data-name="패스 19726" d="M24.1,16.85H5.9a.65.65,0,1,1,0-1.3H24.1a.65.65,0,0,1,0,1.3" fill="#212121"/>
    <path id="패스_19727" data-name="패스 19727" d="M11.425,28.65h-3.9a.65.65,0,0,1-.65-.65V24.4a.65.65,0,0,1,.65-.65h3.9a.65.65,0,0,1,.65.65V28a.65.65,0,0,1-.65.65m-3.25-1.3h2.6v-2.3h-2.6Z" fill="#212121"/>
    <path id="패스_19728" data-name="패스 19728" d="M22.475,28.65h-3.9a.65.65,0,0,1-.65-.65V24.4a.65.65,0,0,1,.65-.65h3.9a.65.65,0,0,1,.65.65V28a.65.65,0,0,1-.65.65m-3.25-1.3h2.6v-2.3h-2.6Z" fill="#212121"/>
    <path id="패스_19729" data-name="패스 19729" d="M12.233,22.05H8.9a.65.65,0,0,1,0-1.3h3.333a.65.65,0,1,1,0,1.3" fill="#212121"/>
    <path id="패스_19730" data-name="패스 19730" d="M21.1,22.05H17.767a.65.65,0,1,1,0-1.3H21.1a.65.65,0,0,1,0,1.3" fill="#212121"/>
    <path id="패스_19731" data-name="패스 19731" d="M24.1,6.65H5.9a.65.65,0,0,1,0-1.3H24.1a.65.65,0,0,1,0,1.3" fill="#212121"/>
  </g>
</svg>
