<svg id="그룹_11349" data-name="그룹 11349" xmlns="http://www.w3.org/2000/svg" xmlns:xlink="http://www.w3.org/1999/xlink" width="64" height="64" viewBox="0 0 64 64">
  <defs>
    <clipPath id="clip-path">
      <rect id="사각형_8236" data-name="사각형 8236" width="64" height="64" fill="none"/>
    </clipPath>
  </defs>
  <g id="그룹_11349-2" data-name="그룹 11349" clip-path="url(#clip-path)">
    <path id="패스_19673" data-name="패스 19673" d="M29.021,23.544a4.65,4.65,0,0,1-3.288-7.938l6-6.005a.65.65,0,1,1,.919.919l-6,6a3.355,3.355,0,0,0,0,4.738,3.432,3.432,0,0,0,4.738,0l5.886-6.042a.65.65,0,0,1,.931.907l-5.892,6.048a4.625,4.625,0,0,1-3.294,1.368" fill="#212121"/>
    <path id="패스_19674" data-name="패스 19674" d="M54.628,33.2a.65.65,0,0,1-.51-1.052A15.352,15.352,0,0,0,32.6,10.573a.65.65,0,1,1-.8-1.024,16.652,16.652,0,0,1,23.345,23.4.647.647,0,0,1-.511.248" fill="#004392"/>
    <path id="패스_19675" data-name="패스 19675" d="M9.517,33.22a.65.65,0,0,1-.506-.241,16.651,16.651,0,0,1,23.5-23.347.65.65,0,1,1-.825,1A15.351,15.351,0,0,0,10.022,32.161a.65.65,0,0,1-.505,1.059" fill="#004392"/>
    <path id="패스_19676" data-name="패스 19676" d="M35.139,57.314a4.631,4.631,0,0,1-2.869-.993.65.65,0,1,1,.8-1.022,3.35,3.35,0,0,0,4.437-5,.65.65,0,0,1,.919-.92,3.35,3.35,0,0,0,4.738-4.738.649.649,0,1,1,.919-.918,3.432,3.432,0,0,0,4.738,0,3.351,3.351,0,0,0,0-4.738.65.65,0,0,1,.919-.919,3.35,3.35,0,0,0,4.738-4.738l-17.07-17.07a.65.65,0,1,1,.919-.919L55.4,32.4A4.649,4.649,0,0,1,50.963,40.2a4.705,4.705,0,0,1,.143,1.153,4.62,4.62,0,0,1-1.362,3.288,4.725,4.725,0,0,1-4.44,1.218,4.649,4.649,0,0,1-5.655,5.655,4.7,4.7,0,0,1,.143,1.152,4.652,4.652,0,0,1-4.653,4.651" fill="#212121"/>
    <path id="패스_19677" data-name="패스 19677" d="M49.285,39.171a.649.649,0,0,1-.46-.19L37.059,27.215a.651.651,0,1,1,.92-.92L49.745,38.061a.65.65,0,0,1-.46,1.11" fill="#212121"/>
    <path id="패스_19678" data-name="패스 19678" d="M43.628,44.828a.649.649,0,0,1-.46-.19L31.4,32.872a.651.651,0,1,1,.92-.92L44.088,43.718a.65.65,0,0,1-.46,1.11" fill="#212121"/>
    <path id="패스_19679" data-name="패스 19679" d="M12.171,41.165a4.649,4.649,0,0,1-3.289-7.936l4.95-4.95a4.65,4.65,0,0,1,6.576,6.576l-4.949,4.95a4.636,4.636,0,0,1-3.288,1.36M9.8,38.886a3.353,3.353,0,0,0,4.737,0l4.95-4.95A3.35,3.35,0,1,0,14.752,29.2L9.8,34.148a3.355,3.355,0,0,0,0,4.738l-.46.46Z" fill="#212121"/>
    <path id="패스_19680" data-name="패스 19680" d="M17.827,46.824a4.65,4.65,0,0,1-3.288-7.938l4.95-4.95a4.65,4.65,0,1,1,6.576,6.576l-4.95,4.95a4.62,4.62,0,0,1-3.288,1.362m4.95-12.95a3.332,3.332,0,0,0-2.369.981l-4.949,4.95a3.352,3.352,0,0,0,0,4.737h0a3.431,3.431,0,0,0,4.737,0l4.95-4.95a3.35,3.35,0,0,0-2.369-5.719" fill="#212121"/>
    <path id="패스_19681" data-name="패스 19681" d="M23.484,52.479A4.648,4.648,0,0,1,20.2,44.543l4.95-4.95a4.65,4.65,0,0,1,6.576,6.576l-4.95,4.95a4.632,4.632,0,0,1-3.288,1.36M21.115,50.2a3.355,3.355,0,0,0,4.738,0l4.95-4.95a3.35,3.35,0,0,0-4.738-4.737l-4.95,4.949A3.355,3.355,0,0,0,21.115,50.2Z" fill="#212121"/>
    <path id="패스_19682" data-name="패스 19682" d="M29.14,58.138A4.65,4.65,0,0,1,25.852,50.2l4.95-4.95a4.65,4.65,0,0,1,6.576,6.576l-4.95,4.95a4.62,4.62,0,0,1-3.288,1.362m4.95-12.95a3.332,3.332,0,0,0-2.369.981l-4.949,4.95a3.352,3.352,0,0,0,0,4.737h0a3.431,3.431,0,0,0,4.737,0l4.95-4.95a3.35,3.35,0,0,0-2.369-5.719" fill="#212121"/>
  </g>
</svg>
