<svg id="그룹_11369" data-name="그룹 11369" xmlns="http://www.w3.org/2000/svg" xmlns:xlink="http://www.w3.org/1999/xlink" width="30" height="30" viewBox="0 0 30 30">
  <defs>
    <clipPath id="clip-path">
      <rect id="사각형_8246" data-name="사각형 8246" width="30" height="30" fill="none"/>
    </clipPath>
  </defs>
  <g id="그룹_11371" data-name="그룹 11371" clip-path="url(#clip-path)">
    <path id="패스_19716" data-name="패스 19716" d="M24.1,23.95H5.9a.65.65,0,0,1-.65-.65V5.1a.65.65,0,0,1,.65-.65H24.1a.65.65,0,0,1,.65.65V23.3a.65.65,0,0,1-.65.65M6.55,22.65h16.9V5.75H6.55Z" fill="#212121"/>
    <path id="패스_19717" data-name="패스 19717" d="M19.9,5.75H10.1a.65.65,0,0,1-.547-1l2.3-3.6A.651.651,0,0,1,12.4.85h5.2a.649.649,0,0,1,.548.3l2.3,3.6a.65.65,0,0,1-.548,1m-8.614-1.3h7.427l-1.469-2.3H12.756Z" fill="#212121"/>
    <path id="패스_19718" data-name="패스 19718" d="M23.862,16.181H5.9a.65.65,0,1,1,0-1.3H23.862a.65.65,0,0,1,0,1.3" fill="#212121"/>
    <path id="패스_19719" data-name="패스 19719" d="M16.949,20.344h-3.9a.65.65,0,0,1,0-1.3h3.9a.65.65,0,1,1,0,1.3" fill="#212121"/>
    <path id="패스_19720" data-name="패스 19720" d="M5.25,29.15a.651.651,0,0,1-.528-1.029l3.732-5.2a.65.65,0,0,1,1.057.758l-3.733,5.2a.647.647,0,0,1-.528.271" fill="#212121"/>
    <path id="패스_19721" data-name="패스 19721" d="M24.75,29.15a.651.651,0,0,1-.529-.271l-3.732-5.2a.65.65,0,0,1,1.056-.758l3.733,5.2a.651.651,0,0,1-.528,1.029" fill="#212121"/>
    <path id="패스_19722" data-name="패스 19722" d="M22.8,26.95H7.2a.65.65,0,0,1,0-1.3H22.8a.65.65,0,0,1,0,1.3" fill="#212121"/>
  </g>
</svg>
