<svg id="그룹_11350" data-name="그룹 11350" xmlns="http://www.w3.org/2000/svg" xmlns:xlink="http://www.w3.org/1999/xlink" width="64" height="64" viewBox="0 0 64 64">
  <defs>
    <clipPath id="clip-path">
      <rect id="사각형_8237" data-name="사각형 8237" width="64" height="64" fill="none"/>
    </clipPath>
  </defs>
  <g id="그룹_11350-2" data-name="그룹 11350" clip-path="url(#clip-path)">
    <path id="패스_19683" data-name="패스 19683" d="M12.871,35.721a10.513,10.513,0,0,1-9.958-7.144.65.65,0,0,1,.616-.859H22.213a.65.65,0,0,1,.615.859,10.513,10.513,0,0,1-9.957,7.144m-8.387-6.7a9.21,9.21,0,0,0,16.773,0Z" fill="#004392"/>
    <path id="패스_19684" data-name="패스 19684" d="M51.129,35.721a10.513,10.513,0,0,1-9.958-7.144.65.65,0,0,1,.616-.859H60.471a.65.65,0,0,1,.615.859,10.513,10.513,0,0,1-9.957,7.144m-8.387-6.7a9.21,9.21,0,0,0,16.773,0Z" fill="#004392"/>
    <path id="패스_19685" data-name="패스 19685" d="M22.213,29.018a.649.649,0,0,1-.587-.37L12.871,10.327,4.115,28.648a.65.65,0,0,1-1.173-.56L12.284,8.539a.678.678,0,0,1,1.173,0L22.8,28.088a.65.65,0,0,1-.586.93" fill="#004392"/>
    <path id="패스_19686" data-name="패스 19686" d="M60.471,29.018a.649.649,0,0,1-.587-.37L51.129,10.327,42.373,28.648a.65.65,0,0,1-1.173-.56L50.542,8.539a.678.678,0,0,1,1.173,0l9.342,19.549a.65.65,0,0,1-.586.93" fill="#004392"/>
    <path id="패스_19687" data-name="패스 19687" d="M51.129,9.47H12.871a.65.65,0,1,1,0-1.3H51.129a.65.65,0,0,1,0,1.3" fill="#212121"/>
    <path id="패스_19688" data-name="패스 19688" d="M32,51.952a.65.65,0,0,1-.65-.65V8.82a.65.65,0,0,1,1.3,0V51.3a.65.65,0,0,1-.65.65" fill="#212121"/>
    <path id="패스_19689" data-name="패스 19689" d="M41.139,55.83H22.861a.65.65,0,0,1-.65-.65V51.3a.65.65,0,0,1,.65-.65H41.139a.65.65,0,0,1,.65.65V55.18a.65.65,0,0,1-.65.65m-17.628-1.3H40.49V51.952H23.511Z" fill="#212121"/>
  </g>
</svg>
