<svg id="그룹_11351" data-name="그룹 11351" xmlns="http://www.w3.org/2000/svg" xmlns:xlink="http://www.w3.org/1999/xlink" width="64" height="64" viewBox="0 0 64 64">
  <defs>
    <clipPath id="clip-path">
      <rect id="사각형_8238" data-name="사각형 8238" width="64" height="64" fill="none"/>
    </clipPath>
  </defs>
  <g id="그룹_11351-2" data-name="그룹 11351" clip-path="url(#clip-path)">
    <path id="패스_19690" data-name="패스 19690" d="M21.5,13.384a.653.653,0,0,1-.418-.151L16.612,9.481a.65.65,0,1,1,.836-.995l4.468,3.75a.65.65,0,0,1-.418,1.148" fill="#004392"/>
    <path id="패스_19691" data-name="패스 19691" d="M42.5,13.384a.65.65,0,0,1-.418-1.148l4.468-3.75a.65.65,0,1,1,.836.995l-4.468,3.752a.653.653,0,0,1-.418.151" fill="#004392"/>
    <path id="패스_19692" data-name="패스 19692" d="M32,10.289a.65.65,0,0,1-.65-.65V4.05a.65.65,0,0,1,1.3,0V9.639a.65.65,0,0,1-.65.65" fill="#004392"/>
    <path id="패스_19693" data-name="패스 19693" d="M32.284,61.518a5.433,5.433,0,0,1-5.365-4.676l1.288-.176a4.115,4.115,0,0,0,8.17-.141l1.294.131a5.4,5.4,0,0,1-5.387,4.862" fill="#212121"/>
    <path id="패스_19694" data-name="패스 19694" d="M38.944,51.989H25.628a.65.65,0,0,1-.65-.65,11.029,11.029,0,0,0-3.812-8.232,16.372,16.372,0,0,1-5.55-12.562,16.6,16.6,0,0,1,15.609-16.1A16.387,16.387,0,0,1,48.387,30.817a16.445,16.445,0,0,1-5.195,11.967,11.116,11.116,0,0,0-3.6,8.047v.508a.65.65,0,0,1-.65.65m-12.684-1.3H38.295A12.433,12.433,0,0,1,42.3,41.835a15.144,15.144,0,0,0,4.783-11.018,15.086,15.086,0,0,0-15.8-15.069A15.286,15.286,0,0,0,16.916,30.566a15.074,15.074,0,0,0,5.11,11.566,12.377,12.377,0,0,1,4.234,8.557" fill="#212121"/>
    <path id="패스_19695" data-name="패스 19695" d="M36.944,57.4h-9.32a2.653,2.653,0,0,1-2.65-2.65V51.338a.65.65,0,0,1,.65-.65h13.32a.65.65,0,0,1,.65.65v3.407a2.653,2.653,0,0,1-2.65,2.65m-10.67-5.407v2.757a1.351,1.351,0,0,0,1.35,1.35h9.32a1.351,1.351,0,0,0,1.35-1.35V51.988Z" fill="#212121"/>
  </g>
</svg>
