<svg width="25" height="25" viewBox="0 0 25 25" fill="none" xmlns="http://www.w3.org/2000/svg">
<mask id="mask0_76_25" style="mask-type:alpha" maskUnits="userSpaceOnUse" x="0" y="0" width="25" height="25">
<rect x="0.74231" y="0.244873" width="24" height="24" fill="#D9D9D9"/>
</mask>
<g mask="url(#mask0_76_25)">
<path d="M1.74231 20.2449V16.2449C1.74231 15.6782 1.93814 15.2032 2.32981 14.8199C2.72148 14.4365 3.19231 14.2449 3.74231 14.2449H7.01731C7.35064 14.2449 7.66731 14.3282 7.96731 14.4949C8.26731 14.6615 8.50898 14.8865 8.69231 15.1699C9.17564 15.8199 9.77148 16.3282 10.4798 16.6949C11.1881 17.0615 11.9423 17.2449 12.7423 17.2449C13.559 17.2449 14.3215 17.0615 15.0298 16.6949C15.7381 16.3282 16.3256 15.8199 16.7923 15.1699C17.009 14.8865 17.2631 14.6615 17.5548 14.4949C17.8465 14.3282 18.1506 14.2449 18.4673 14.2449H21.7423C22.309 14.2449 22.784 14.4365 23.1673 14.8199C23.5506 15.2032 23.7423 15.6782 23.7423 16.2449V20.2449H16.7423V17.9699C16.159 18.3865 15.5298 18.7032 14.8548 18.9199C14.1798 19.1365 13.4756 19.2449 12.7423 19.2449C12.0256 19.2449 11.3256 19.1324 10.6423 18.9074C9.95898 18.6824 9.32564 18.3615 8.74231 17.9449V20.2449H1.74231ZM12.7423 16.2449C12.109 16.2449 11.509 16.099 10.9423 15.8074C10.3756 15.5157 9.90064 15.1115 9.51731 14.5949C9.23398 14.1782 8.87981 13.849 8.45481 13.6074C8.02981 13.3657 7.56731 13.2449 7.06731 13.2449C7.43398 12.6282 8.20898 12.1407 9.39231 11.7824C10.5756 11.424 11.6923 11.2449 12.7423 11.2449C13.7923 11.2449 14.909 11.424 16.0923 11.7824C17.2756 12.1407 18.0506 12.6282 18.4173 13.2449C17.934 13.2449 17.4756 13.3657 17.0423 13.6074C16.609 13.849 16.2506 14.1782 15.9673 14.5949C15.6006 15.1282 15.134 15.5365 14.5673 15.8199C14.0006 16.1032 13.3923 16.2449 12.7423 16.2449ZM4.74231 13.2449C3.90898 13.2449 3.20064 12.9532 2.61731 12.3699C2.03398 11.7865 1.74231 11.0782 1.74231 10.2449C1.74231 9.39487 2.03398 8.68237 2.61731 8.10737C3.20064 7.53237 3.90898 7.24487 4.74231 7.24487C5.59231 7.24487 6.30481 7.53237 6.87981 8.10737C7.45481 8.68237 7.74231 9.39487 7.74231 10.2449C7.74231 11.0782 7.45481 11.7865 6.87981 12.3699C6.30481 12.9532 5.59231 13.2449 4.74231 13.2449ZM20.7423 13.2449C19.909 13.2449 19.2006 12.9532 18.6173 12.3699C18.034 11.7865 17.7423 11.0782 17.7423 10.2449C17.7423 9.39487 18.034 8.68237 18.6173 8.10737C19.2006 7.53237 19.909 7.24487 20.7423 7.24487C21.5923 7.24487 22.3048 7.53237 22.8798 8.10737C23.4548 8.68237 23.7423 9.39487 23.7423 10.2449C23.7423 11.0782 23.4548 11.7865 22.8798 12.3699C22.3048 12.9532 21.5923 13.2449 20.7423 13.2449ZM12.7423 10.2449C11.909 10.2449 11.2006 9.95321 10.6173 9.36987C10.034 8.78654 9.74231 8.07821 9.74231 7.24487C9.74231 6.39487 10.034 5.68237 10.6173 5.10737C11.2006 4.53237 11.909 4.24487 12.7423 4.24487C13.5923 4.24487 14.3048 4.53237 14.8798 5.10737C15.4548 5.68237 15.7423 6.39487 15.7423 7.24487C15.7423 8.07821 15.4548 8.78654 14.8798 9.36987C14.3048 9.95321 13.5923 10.2449 12.7423 10.2449Z" fill="white"/>
</g>
</svg>
