<svg width="25" height="25" viewBox="0 0 25 25" fill="none" xmlns="http://www.w3.org/2000/svg">
<mask id="mask0_76_31" style="mask-type:alpha" maskUnits="userSpaceOnUse" x="0" y="0" width="25" height="25">
<rect x="0.814331" y="0.0333252" width="24" height="24" fill="#D9D9D9"/>
</mask>
<g mask="url(#mask0_76_31)">
<path d="M15.8143 20.0333C13.581 20.0333 11.6893 19.2583 10.1393 17.7083C8.58933 16.1583 7.81433 14.2667 7.81433 12.0333C7.81433 9.81666 8.58933 7.92916 10.1393 6.37083C11.6893 4.81249 13.581 4.03333 15.8143 4.03333C18.031 4.03333 19.9185 4.81249 21.4768 6.37083C23.0352 7.92916 23.8143 9.81666 23.8143 12.0333C23.8143 14.2667 23.0352 16.1583 21.4768 17.7083C19.9185 19.2583 18.031 20.0333 15.8143 20.0333ZM15.8143 18.0333C17.481 18.0333 18.8977 17.45 20.0643 16.2833C21.231 15.1167 21.8143 13.7 21.8143 12.0333C21.8143 10.3667 21.231 8.94999 20.0643 7.78333C18.8977 6.61666 17.481 6.03333 15.8143 6.03333C14.1477 6.03333 12.731 6.61666 11.5643 7.78333C10.3977 8.94999 9.81433 10.3667 9.81433 12.0333C9.81433 13.7 10.3977 15.1167 11.5643 16.2833C12.731 17.45 14.1477 18.0333 15.8143 18.0333ZM18.0893 15.7583L19.5143 14.3333L16.8143 11.6333V8.03333H14.8143V12.4583L18.0893 15.7583ZM2.81433 9.03333V7.03333H6.81433V9.03333H2.81433ZM1.81433 13.0333V11.0333H6.81433V13.0333H1.81433ZM2.81433 17.0333V15.0333H6.81433V17.0333H2.81433Z" fill="white"/>
</g>
</svg>
