<svg width="25" height="25" viewBox="0 0 25 25" fill="none" xmlns="http://www.w3.org/2000/svg">
<mask id="mask0_76_13" style="mask-type:alpha" maskUnits="userSpaceOnUse" x="0" y="0" width="25" height="25">
<rect x="0.74231" y="0.244873" width="24" height="24" fill="#D9D9D9"/>
</mask>
<g mask="url(#mask0_76_13)">
<path d="M17.7423 9.24487H19.7423V7.24487H17.7423V9.24487ZM17.7423 13.2449H19.7423V11.2449H17.7423V13.2449ZM17.7423 17.2449H19.7423V15.2449H17.7423V17.2449ZM17.7423 21.2449V19.2449H21.7423V5.24487H12.7423V6.64487L10.7423 5.19487V3.24487H23.7423V21.2449H17.7423ZM1.74231 21.2449V11.2449L8.74231 6.24487L15.7423 11.2449V21.2449H9.74231V16.2449H7.74231V21.2449H1.74231ZM3.74231 19.2449H5.74231V14.2449H11.7423V19.2449H13.7423V12.2449L8.74231 8.69487L3.74231 12.2449V19.2449Z" fill="white"/>
</g>
</svg>
